<?xml version="1.0" encoding="UTF-8"?>
<svg width="512" height="128" viewBox="0 0 512 128" fill="none" xmlns="http://www.w3.org/2000/svg">
  <!-- Star icon -->
  <path d="M64 12L75.4 46.2L112 46.2L82.3 67.6L93.7 101.8L64 80.4L34.3 101.8L45.7 67.6L16 46.2L52.6 46.2L64 12Z" fill="url(#starGradient)"/>
  
  <!-- Text: StarWeb -->
  <path d="M144 40.5C144 38.5 144.5 36.7 145.5 35.1C146.5 33.5 147.9 32.2 149.7 31.3C151.5 30.4 153.6 29.9 156 29.9C158.4 29.9 160.5 30.4 162.3 31.3C164.1 32.2 165.5 33.5 166.5 35.1C167.5 36.7 168 38.5 168 40.5C168 42.5 167.5 44.3 166.5 45.9C165.5 47.5 164.1 48.8 162.3 49.7C160.5 50.6 158.4 51.1 156 51.1C153.6 51.1 151.5 50.6 149.7 49.7C147.9 48.8 146.5 47.5 145.5 45.9C144.5 44.3 144 42.5 144 40.5ZM146.4 40.5C146.4 42.1 146.8 43.5 147.6 44.8C148.4 46.1 149.5 47.1 150.9 47.8C152.3 48.5 154 48.9 156 48.9C158 48.9 159.7 48.5 161.1 47.8C162.5 47.1 163.6 46.1 164.4 44.8C165.2 43.5 165.6 42.1 165.6 40.5C165.6 38.9 165.2 37.5 164.4 36.2C163.6 34.9 162.5 33.9 161.1 33.2C159.7 32.5 158 32.1 156 32.1C154 32.1 152.3 32.5 150.9 33.2C149.5 33.9 148.4 34.9 147.6 36.2C146.8 37.5 146.4 38.9 146.4 40.5Z" fill="#4B0082"/>
  <path d="M144 72C144 70 144.5 68.2 145.5 66.6C146.5 65 147.9 63.7 149.7 62.8C151.5 61.9 153.6 61.4 156 61.4C158.4 61.4 160.5 61.9 162.3 62.8C164.1 63.7 165.5 65 166.5 66.6C167.5 68.2 168 70 168 72C168 74 167.5 75.8 166.5 77.4C165.5 79 164.1 80.3 162.3 81.2C160.5 82.1 158.4 82.6 156 82.6C153.6 82.6 151.5 82.1 149.7 81.2C147.9 80.3 146.5 79 145.5 77.4C144.5 75.8 144 74 144 72ZM146.4 72C146.4 73.6 146.8 75 147.6 76.3C148.4 77.6 149.5 78.6 150.9 79.3C152.3 80 154 80.4 156 80.4C158 80.4 159.7 80 161.1 79.3C162.5 78.6 163.6 77.6 164.4 76.3C165.2 75 165.6 73.6 165.6 72C165.6 70.4 165.2 69 164.4 67.7C163.6 66.4 162.5 65.4 161.1 64.7C159.7 64 158 63.6 156 63.6C154 63.6 152.3 64 150.9 64.7C149.5 65.4 148.4 66.4 147.6 67.7C146.8 69 146.4 70.4 146.4 72Z" fill="#4B0082"/>
  
  <!-- Text: StarWeb -->
  <path d="M180 30H195.6C198.8 30 201.5 30.6 203.7 31.8C205.9 33 207.6 34.7 208.8 36.9C210 39.1 210.6 41.7 210.6 44.7C210.6 47.7 210 50.3 208.8 52.5C207.6 54.7 205.9 56.4 203.7 57.6C201.5 58.8 198.8 59.4 195.6 59.4H180V30ZM195.3 56.7C197.9 56.7 200.1 56.2 201.9 55.2C203.7 54.2 205.1 52.8 206.1 51C207.1 49.2 207.6 47.1 207.6 44.7C207.6 42.3 207.1 40.2 206.1 38.4C205.1 36.6 203.7 35.2 201.9 34.2C200.1 33.2 197.9 32.7 195.3 32.7H183V56.7H195.3Z" fill="#4B0082"/>
  <path d="M220.8 30H223.8V59.4H220.8V30Z" fill="#4B0082"/>
  <path d="M235.2 30H238.2L255.6 54.9H255.9V30H258.9V59.4H255.9L238.5 34.5H238.2V59.4H235.2V30Z" fill="#4B0082"/>
  <path d="M270 30H273V59.4H270V30Z" fill="#4B0082"/>
  <path d="M284.4 30H287.4L304.8 54.9H305.1V30H308.1V59.4H305.1L287.7 34.5H287.4V59.4H284.4V30Z" fill="#4B0082"/>
  <path d="M319.2 30H334.8C338 30 340.7 30.6 342.9 31.8C345.1 33 346.8 34.7 348 36.9C349.2 39.1 349.8 41.7 349.8 44.7C349.8 47.7 349.2 50.3 348 52.5C346.8 54.7 345.1 56.4 342.9 57.6C340.7 58.8 338 59.4 334.8 59.4H319.2V30ZM334.5 56.7C337.1 56.7 339.3 56.2 341.1 55.2C342.9 54.2 344.3 52.8 345.3 51C346.3 49.2 346.8 47.1 346.8 44.7C346.8 42.3 346.3 40.2 345.3 38.4C344.3 36.6 342.9 35.2 341.1 34.2C339.3 33.2 337.1 32.7 334.5 32.7H322.2V56.7H334.5Z" fill="#4B0082"/>
  
  <!-- Text: Product of Stellar Branding -->
  <path d="M180 90H190.2C192.2 90 193.9 90.4 195.3 91.2C196.7 92 197.7 93.1 198.4 94.5C199.1 95.9 199.5 97.5 199.5 99.3C199.5 101.1 199.1 102.7 198.4 104.1C197.7 105.5 196.7 106.6 195.3 107.4C193.9 108.2 192.2 108.6 190.2 108.6H180V90ZM190 106.8C191.6 106.8 193 106.5 194.1 105.9C195.2 105.3 196 104.5 196.6 103.4C197.2 102.3 197.5 100.9 197.5 99.3C197.5 97.7 197.2 96.3 196.6 95.2C196 94.1 195.2 93.3 194.1 92.7C193 92.1 191.6 91.8 190 91.8H182V106.8H190Z" fill="#800080"/>
  <path d="M208.2 90H210.2V106.8H221.4V108.6H208.2V90Z" fill="#800080"/>
  <path d="M229.8 90H231.8V108.6H229.8V90Z" fill="#800080"/>
  <path d="M241.8 90H243.8L255.6 105.6H255.8V90H257.8V108.6H255.8L244 93H243.8V108.6H241.8V90Z" fill="#800080"/>
  <path d="M267.6 90H269.6V108.6H267.6V90Z" fill="#800080"/>
  <path d="M279.6 90H281.6L293.4 105.6H293.6V90H295.6V108.6H293.6L281.8 93H281.6V108.6H279.6V90Z" fill="#800080"/>
  <path d="M305.4 90H315.6C317.6 90 319.3 90.4 320.7 91.2C322.1 92 323.1 93.1 323.8 94.5C324.5 95.9 324.9 97.5 324.9 99.3C324.9 101.1 324.5 102.7 323.8 104.1C323.1 105.5 322.1 106.6 320.7 107.4C319.3 108.2 317.6 108.6 315.6 108.6H305.4V90ZM315.4 106.8C317 106.8 318.4 106.5 319.5 105.9C320.6 105.3 321.4 104.5 322 103.4C322.6 102.3 322.9 100.9 322.9 99.3C322.9 97.7 322.6 96.3 322 95.2C321.4 94.1 320.6 93.3 319.5 92.7C318.4 92.1 317 91.8 315.4 91.8H307.4V106.8H315.4Z" fill="#800080"/>
  
  <!-- Definitions -->
  <defs>
    <linearGradient id="starGradient" x1="64" y1="12" x2="64" y2="101.8" gradientUnits="userSpaceOnUse">
      <stop offset="0%" stop-color="#9E00FF"/>
      <stop offset="50%" stop-color="#800080"/>
      <stop offset="100%" stop-color="#4B0082"/>
    </linearGradient>
  </defs>
</svg> 